HIERARCHY
ROOT SpineBase
{
  OFFSET 0.000000 0.000000 0.000000
  CHANNELS 6 Xposition Yposition Zposition Zrotation Xrotation Yrotation
  JOINT SpineMid
  {
    OFFSET 0.000000 28.084539 0.000000
    CHANNELS 3 Zrotation Xrotation Yrotation
    JOINT SpineShoulder
    {
      OFFSET 0.026748 20.849347 -0.736363
      CHANNELS 3 Zrotation Xrotation Yrotation
      JOINT Neck
      {
        OFFSET -0.004338 6.910978 -0.545684
        CHANNELS 3 Zrotation Xrotation Yrotation
        JOINT Head
        {
          OFFSET -2.993805 12.045051 1.233375
          CHANNELS 3 Zrotation Xrotation Yrotation
          End Site
          {
            OFFSET 0 0 0
          }
        }
      }
      JOINT ShoulderLeft
      {
        OFFSET -13.015884 -4.446122 8.650913
        CHANNELS 3 Zrotation Xrotation Yrotation
        JOINT ElbowLeft
        {
          OFFSET -1.855720 -19.645657 2.369233
          CHANNELS 3 Zrotation Xrotation Yrotation
          JOINT WristLeft
          {
            OFFSET -1.040170 -19.151736 -2.685836
            CHANNELS 3 Zrotation Xrotation Yrotation
            JOINT HandLeft
            {
              OFFSET 1.149519 -6.854421 1.845987
              CHANNELS 3 Zrotation Xrotation Yrotation
              JOINT HandTipLeft
              {
                OFFSET 0.462837 -6.306573 1.683256
                CHANNELS 3 Zrotation Xrotation Yrotation
                End Site
                {
                  OFFSET 0 0 0
                }
              }
              JOINT ThumbLeft
              {
                OFFSET 2.733074 0.514098 -9.428877
                CHANNELS 3 Zrotation Xrotation Yrotation
                End Site
                {
                  OFFSET 0 0 0
                }
              }
            }
          }
        }
      }
      JOINT ShoulderRight
      {
        OFFSET 10.019950 -4.497483 -12.062097
        CHANNELS 3 Zrotation Xrotation Yrotation
        JOINT ElbowRight
        {
          OFFSET 4.237273 -19.279645 -5.026161
          CHANNELS 3 Zrotation Xrotation Yrotation
          JOINT WristRight
          {
            OFFSET -0.299013 -18.528889 -2.014128
            CHANNELS 3 Zrotation Xrotation Yrotation
            JOINT HandRight
            {
              OFFSET 0.267572 -6.183512 0.038947
              CHANNELS 3 Zrotation Xrotation Yrotation
              JOINT HandTipRight
              {
                OFFSET 1.156173 -7.055492 1.005130
                CHANNELS 3 Zrotation Xrotation Yrotation
                End Site
                {
                  OFFSET 0 0 0
                }
              }
              JOINT ThumbRight
              {
                OFFSET -3.262696 -1.014326 -0.260085
                CHANNELS 3 Zrotation Xrotation Yrotation
                End Site
                {
                  OFFSET 0 0 0
                }
              }
            }
          }
        }
      }
    }
  }
  JOINT HipLeft
  {
    OFFSET -4.551508 0.202225 1.522010
    CHANNELS 3 Zrotation Xrotation Yrotation
    JOINT KneeLeft
    {
      OFFSET 6.586326 -27.954323 8.710775
      CHANNELS 3 Zrotation Xrotation Yrotation
      JOINT AnkleLeft
      {
        OFFSET 10.045031 -30.047254 7.878155
        CHANNELS 3 Zrotation Xrotation Yrotation
        JOINT FootLeft
        {
          OFFSET -2.391169 -8.696639 -0.203651
          CHANNELS 3 Zrotation Xrotation Yrotation
          End Site
          {
            OFFSET 0 0 0
          }
        }
      }
    }
  }
  JOINT HipRight
  {
    OFFSET 4.328020 1.004220 -7.787019
    CHANNELS 3 Zrotation Xrotation Yrotation
    JOINT KneeRight
    {
      OFFSET 11.475867 -30.490271 8.061518
      CHANNELS 3 Zrotation Xrotation Yrotation
      JOINT AnkleRight
      {
        OFFSET 7.725920 -31.700975 5.888779
        CHANNELS 3 Zrotation Xrotation Yrotation
        JOINT FootRight
        {
          OFFSET -5.257665 -3.280872 -8.820876
          CHANNELS 3 Zrotation Xrotation Yrotation
          End Site
          {
            OFFSET 0 0 0
          }
        }
      }
    }
  }
}
MOTION
Frames: 5
Frame Time: 0.033333
29.570255 68.820537 335.964017 8.659112 -0.511556 18.197442 -0.559914 0.552771 -17.897782 -1.233836 0.868936 0.201120 -12.584787 -7.463098 -2.132654 0.000000 0.000000 0.000000 -20.070178 -10.855113 -2.497681 7.719922 58.589441 0.629058 -8.967612 40.214917 24.663994 -4.383241 -13.870544 -18.140032 0.000000 0.000000 0.000000 0.000000 0.000000 0.000000 17.013071 10.660228 -5.996347 -78.804813 23.472993 12.311683 -13.599987 -13.718443 -19.496565 11.443842 16.288827 8.221196 0.000000 0.000000 0.000000 0.000000 0.000000 0.000000 -27.080446 13.559871 -20.995361 17.423663 -8.005063 2.998135 14.929660 51.436855 -16.530304 0.000000 0.000000 0.000000 -18.695807 13.850857 -17.234122 4.364606 -8.960081 -1.740024 12.992125 4.287464 -12.558833 0.000000 0.000000 0.000000
30.805304 68.872164 336.619315 9.872606 -0.359545 18.934992 -0.469191 0.467844 -18.596749 -1.340067 0.835773 0.243040 -14.315354 -7.365500 -2.191791 0.000000 0.000000 0.000000 -20.014824 -1.570215 -2.255927 12.528832 57.636797 -2.384137 -9.984959 40.028249 28.823875 -5.335166 -12.687607 -20.945431 0.000000 0.000000 0.000000 0.000000 0.000000 0.000000 12.290533 12.009816 -4.862897 -82.468131 24.056643 13.210925 -11.462975 -5.368724 -14.929542 -3.811774 18.787326 11.365501 0.000000 0.000000 0.000000 0.000000 0.000000 0.000000 -29.251071 15.739108 -21.291276 18.471607 -9.462558 3.024006 28.268446 51.953615 -24.051595 0.000000 0.000000 0.000000 -20.351426 15.413663 -17.557163 3.553179 -10.104865 -2.492215 16.062135 2.515391 -13.420263 0.000000 0.000000 0.000000
31.550730 69.019376 336.974343 10.549420 0.012535 19.289523 -0.274614 0.363791 -18.953309 -1.352209 0.959904 0.262126 -15.574403 -7.457437 -2.238935 0.000000 0.000000 0.000000 -18.572948 7.658317 -2.237057 20.717395 51.516437 -6.606550 -12.586486 40.764710 29.781517 -5.582919 -14.502852 -20.124299 0.000000 0.000000 0.000000 0.000000 0.000000 0.000000 8.403868 13.729905 -3.664306 -83.530642 24.197909 12.299666 -12.603393 0.727298 -11.997521 -12.830123 20.510963 13.636603 0.000000 0.000000 0.000000 0.000000 0.000000 0.000000 -30.182865 16.470039 -21.524596 18.706665 -10.024610 3.010212 30.138314 34.926306 -15.436727 0.000000 0.000000 0.000000 -19.705115 17.456381 -16.862845 0.292011 -13.997231 -5.336549 19.371899 2.742156 -14.050957 0.000000 0.000000 0.000000
31.641722 69.255125 336.972197 10.476996 0.735152 19.132621 0.116164 0.166419 -18.845797 -1.187356 1.104160 0.269805 -16.378657 -7.699541 -2.273734 0.000000 0.000000 0.000000 -16.571430 15.532227 -2.608727 27.359978 44.006783 -7.788230 -15.171578 42.450983 29.466912 -5.376241 -15.291191 -18.351834 0.000000 0.000000 0.000000 0.000000 0.000000 0.000000 4.036912 15.970864 -1.940112 -81.895188 24.847122 10.254051 -6.326201 5.852751 -4.905438 -19.589610 19.642934 7.198681 0.000000 0.000000 0.000000 0.000000 0.000000 0.000000 -29.645881 15.378965 -21.729627 17.952410 -9.703504 2.876847 32.074410 35.865310 -16.957961 0.000000 0.000000 0.000000 -16.602110 20.084291 -15.048597 -5.395269 -20.494827 -10.774086 22.226631 5.003434 -14.659041 0.000000 0.000000 0.000000
31.229766 69.551816 336.671031 9.879361 1.765104 19.085606 0.511917 -0.157475 -18.864187 -0.886026 1.274682 0.270187 -16.652398 -8.268795 -2.366380 0.000000 0.000000 0.000000 -13.997987 21.471327 -3.244324 31.699276 36.720963 -6.649459 -16.723715 44.336763 28.643201 -8.450127 -28.165031 -13.613401 0.000000 0.000000 0.000000 0.000000 0.000000 0.000000 -0.597800 18.820003 0.260561 -75.481254 25.395172 6.254451 -5.853071 5.806847 -4.674349 -27.188599 23.067206 8.925266 0.000000 0.000000 0.000000 0.000000 0.000000 0.000000 -28.069647 13.169306 -22.300067 17.158622 -8.257681 3.075286 25.962783 35.514788 -14.974629 0.000000 0.000000 0.000000 -11.097553 24.059263 -12.652619 -14.784644 -29.259624 -20.211629 24.447846 9.451914 -15.239807 0.000000 0.000000 0.000000
